<svg xmlns="http://www.w3.org/2000/svg" width="128" height="25" fill="none" viewBox="0 0 128 25"><g fill="#111" clip-path="url(#a)"><path d="M1.624 22.457A9.428 9.428 0 0 1 .02 16.738V8.262A9.559 9.559 0 0 1 1.523 2.44C2.625 1.113 4.327.5 6.831.5c2.503 0 4.106.613 5.107 1.736A7.433 7.433 0 0 1 13.44 7.24v2.043H8.533V6.934a5.116 5.116 0 0 0-.3-2.043 1.46 1.46 0 0 0-.579-.627 1.42 1.42 0 0 0-.823-.19c-.701 0-1.202.205-1.402.715a6.72 6.72 0 0 0-.3 2.247v10.928a4.3 4.3 0 0 0 .4 2.145c.2.51.701.714 1.402.714s1.102-.204 1.302-.715c.227-.69.33-1.417.3-2.144v-2.451h4.907v2.042a7.922 7.922 0 0 1-1.502 5.107C10.937 23.887 9.234 24.5 6.831 24.5c-2.403-.102-4.206-.715-5.207-2.043ZM19.348.806h5.708l4.206 23.285h-4.606l-.801-4.902H20.55l-.801 4.902h-4.707L19.348.806Zm4.106 15.32-1.202-9.09-1.201 9.09h2.403ZM32.767 4.687h-3.405V.807H41.28v3.778h-3.405V24.09h-5.107V4.687ZM50.392.806h8.812v2.451h-5.708v7.66h4.606v2.349h-4.606v8.578h5.708v2.35H50.29V.805h.1ZM61.808.806h2.203l6.509 15.421V.807h2.603V24.09h-2.002L64.51 8.16v15.932h-2.703V.806ZM76.128.806h8.812v2.451h-5.708v7.66h4.606v2.349h-4.606v8.578h5.708v2.35h-8.812V.805ZM87.543.806h4.607a7.896 7.896 0 0 1 5.107 1.43c1.102.919 1.602 2.553 1.602 4.698 0 2.961-.901 4.8-2.804 5.413l3.205 11.642h-3.105l-3.004-10.928h-2.503V23.99h-3.205V.806h.1Zm4.407 10.009a4.314 4.314 0 0 0 2.904-.817c.6-.511.901-1.532.901-3.064a6.72 6.72 0 0 0-.3-2.247 2.576 2.576 0 0 0-1.102-1.226 4.489 4.489 0 0 0-2.203-.408h-1.402v7.66h1.202v.102ZM102.865 22.355a10.485 10.485 0 0 1-1.402-5.923V8.67c-.025-1.48.144-2.957.501-4.391a5.186 5.186 0 0 1 1.902-2.656 6.438 6.438 0 0 1 3.705-.919c2.103 0 3.606.51 4.507 1.634a7.93 7.93 0 0 1 1.402 5.107v.817h-3.004v-.715c.004-.855-.063-1.71-.201-2.553a2.045 2.045 0 0 0-.801-1.328 3.05 3.05 0 0 0-1.903-.51 2.961 2.961 0 0 0-2.002.612 2.331 2.331 0 0 0-.801 1.634 19.568 19.568 0 0 0-.201 2.758v8.68a9.433 9.433 0 0 0 .601 3.881c.401.817 1.202 1.124 2.403 1.124.475.06.956-.024 1.384-.242.428-.218.782-.56 1.02-.984a9.572 9.572 0 0 0 .701-4.085V14.9h-2.904v-2.349h5.808v11.54h-2.003l-.3-2.655a4.172 4.172 0 0 1-1.553 2.202 4.03 4.03 0 0 1-2.553.76 4.924 4.924 0 0 1-2.406-.468 5.032 5.032 0 0 1-1.9-1.575ZM119.989 15.921 115.082.908h3.004l3.505 11.234L124.996.908H128l-4.907 15.013v8.17h-3.004v-8.17h-.1Z"/></g><defs><clipPath id="a"><path fill="#fff" d="M0 .5h128v24H0z"/></clipPath></defs></svg>